<svg width="24" height="24" viewBox="0 0 24 24" fill="none" xmlns="http://www.w3.org/2000/svg">
<path d="M13.6057 1C15.6246 2.64038 17.2177 4.62777 18.3849 6.96215C19.5521 9.29654 20.1357 11.8044 20.1357 14.4858C20.1357 16.694 19.347 18.5868 17.7697 20.1641C16.1924 21.7414 14.2918 22.53 12.0678 22.53C9.84386 22.53 7.94322 21.7414 6.36593 20.1641C4.78864 18.5868 4 16.694 4 14.4858C4 11.0789 5.08833 8.08203 7.26499 5.49528L7.21767 5.87382C7.21767 6.91484 7.57256 7.79812 8.28234 8.52367C8.99212 9.24922 9.86752 9.612 10.9085 9.612C11.918 9.612 12.7382 9.24922 13.3691 8.52367C14 7.79812 14.3155 6.91484 14.3155 5.87382C14.3155 5.21136 14.2603 4.47792 14.1499 3.67351C14.0394 2.86909 13.9212 2.23029 13.795 1.7571L13.6057 1ZM11.7603 19.5016C13.1167 19.5016 14.2682 19.0284 15.2145 18.082C16.1609 17.1357 16.6341 16 16.6341 14.6751C16.6341 13.2555 16.429 11.8991 16.0189 10.6057C15.0726 11.8991 13.5268 12.7666 11.3817 13.2082C10.4669 13.3975 9.76499 13.7682 9.27603 14.3202C8.78707 14.8723 8.54259 15.5426 8.54259 16.3313C8.54259 17.2145 8.85805 17.9637 9.48897 18.5789C10.1199 19.194 10.877 19.5016 11.7603 19.5016Z" fill="white"/>
</svg>
