<svg width="24" height="24" viewBox="0 0 24 24" fill="none" xmlns="http://www.w3.org/2000/svg">
<g clip-path="url(#clip0_2_247)">
<path fill-rule="evenodd" clip-rule="evenodd" d="M15.7456 2.30452L15.97 2.5191L16.216 2.76732L16.3467 2.90553L16.6237 3.20744L16.9188 3.54859L17.2315 3.92811C17.3385 4.06147 17.4473 4.20189 17.5596 4.34837L17.9019 4.81124C18.3666 5.45627 18.8653 6.21798 19.3808 7.11086C19.8963 8.00373 20.3075 8.81594 20.6337 9.54097L20.8626 10.0693C20.9342 10.2393 21.001 10.4051 21.0625 10.5636L21.2357 11.0236L21.3827 11.4503L21.5057 11.8412L21.6086 12.1974L21.6909 12.516L21.7256 12.6622C21.9825 13.7691 21.2103 14.6976 20.2499 14.8941L19.0315 15.1437L19.1515 16.1517C19.211 16.6498 19.0811 17.152 18.7877 17.5588C18.4943 17.9656 18.0588 18.2473 17.5675 18.348L12.3042 19.4238C12.0333 19.4792 11.7538 19.4778 11.4835 19.4197C11.2131 19.3616 10.9578 19.2481 10.7335 19.0864C10.5093 18.9246 10.321 18.7181 10.1806 18.4799C10.0402 18.2417 9.95068 17.9769 9.91777 17.7024L9.83673 17.024L9.03346 17.1887L8.07674 18.2676C7.86648 18.5046 7.60293 18.6883 7.30779 18.8035C7.01265 18.9186 6.69437 18.9621 6.37917 18.9301C6.06396 18.8982 5.76084 18.7919 5.49478 18.6199C5.22873 18.4479 5.00734 18.2151 4.84886 17.9408L2.73636 14.2818C2.57784 14.0074 2.4868 13.6992 2.47074 13.3828C2.45468 13.0663 2.51406 12.7505 2.64398 12.4614C2.77391 12.1724 2.97066 11.9183 3.21802 11.7203C3.46539 11.5222 3.75628 11.3857 4.06674 11.3221L5.47946 11.033L13.0754 2.46749C13.7258 1.73402 14.9155 1.52865 15.7456 2.30452ZM11.8031 16.6219L11.903 17.4649L17.1663 16.3892L17.0659 15.5453L11.8031 16.6219ZM14.4978 3.87715L7.23299 12.0702L9.01199 15.1515L19.7398 12.9566L19.6649 12.673L19.5707 12.3498L19.5154 12.1739L19.3859 11.7937C19.3364 11.6537 19.2852 11.5142 19.2322 11.3755L19.0504 10.9205C18.7239 10.131 18.2723 9.19079 17.6488 8.11086C17.0258 7.03179 16.436 6.17025 15.9172 5.49173L15.6132 5.10721C15.5146 4.98634 15.4199 4.8724 15.3274 4.76416L15.0625 4.46331L14.8187 4.20107L14.4978 3.87715ZM4.46841 13.2818L6.58091 16.9408L7.27994 16.1515L5.50094 13.0702L4.46841 13.2818Z" fill="white"/>
</g>
<defs>
<clipPath id="clip0_2_247">
<rect width="24" height="24" fill="white"/>
</clipPath>
</defs>
</svg>
